<svg xmlns="http://www.w3.org/2000/svg"  viewBox="0 0 64 64" width="64px" height="64px"><linearGradient id="WU8Pnd6OPKWv_3C~zp5GRa" x1="23.5" x2="23.5" y1="14.059" y2="49.948" gradientUnits="userSpaceOnUse" spreadMethod="reflect"><stop offset="0" stop-color="#6dc7ff"/><stop offset="1" stop-color="#e6abff"/></linearGradient><path fill="url(#WU8Pnd6OPKWv_3C~zp5GRa)" d="M15 14H32V50H15z"/><linearGradient id="WU8Pnd6OPKWv_3C~zp5GRb" x1="41" x2="41" y1="14.059" y2="49.948" gradientUnits="userSpaceOnUse" spreadMethod="reflect"><stop offset="0" stop-color="#6dc7ff"/><stop offset="1" stop-color="#e6abff"/></linearGradient><path fill="url(#WU8Pnd6OPKWv_3C~zp5GRb)" d="M41 14A9 9 0 1 0 41 32A9 9 0 1 0 41 14Z"/><linearGradient id="WU8Pnd6OPKWv_3C~zp5GRc" x1="41" x2="41" y1="14.059" y2="49.948" gradientUnits="userSpaceOnUse" spreadMethod="reflect"><stop offset="0" stop-color="#6dc7ff"/><stop offset="1" stop-color="#e6abff"/></linearGradient><path fill="url(#WU8Pnd6OPKWv_3C~zp5GRc)" d="M41 32A9 9 0 1 0 41 50A9 9 0 1 0 41 32Z"/><linearGradient id="WU8Pnd6OPKWv_3C~zp5GRd" x1="32" x2="32" y1="-528.5" y2="-579.5" gradientTransform="matrix(1 0 0 -1 0 -522)" gradientUnits="userSpaceOnUse" spreadMethod="reflect"><stop offset="0" stop-color="#1a6dff"/><stop offset="1" stop-color="#c822ff"/></linearGradient><path fill="url(#WU8Pnd6OPKWv_3C~zp5GRd)" d="M50,57H14c-3.859,0-7-3.141-7-7V14c0-3.859,3.141-7,7-7h36c3.859,0,7,3.141,7,7v36 C57,53.859,53.859,57,50,57z M14,9c-2.757,0-5,2.243-5,5v36c0,2.757,2.243,5,5,5h36c2.757,0,5-2.243,5-5V14c0-2.757-2.243-5-5-5H14z"/></svg>